/* XPM */
static char *result[] = {
/* columns rows colors chars-per-pixel */
"64 64 158 2 ",
"   c #1A1010",
".  c #3C1216",
"X  c #262628",
"o  c #322829",
"O  c #313132",
"+  c #393538",
"@  c #3A3A3A",
"#  c #431418",
"$  c #4A1B1F",
"%  c #57161B",
"&  c #5E141A",
"*  c #5D1A1F",
"=  c #64151B",
"-  c #6E141A",
";  c #7F171F",
":  c #7B181F",
">  c #581C22",
",  c #6E1A21",
"<  c #462125",
"1  c #49262A",
"2  c #54272B",
"3  c #5C2F34",
"4  c #4A3135",
"5  c #5C3638",
"6  c #5F3C3F",
"7  c #66272C",
"8  c #68292D",
"9  c #702126",
"0  c #742329",
"q  c #7D252C",
"w  c #732B30",
"e  c #403F43",
"r  c #434343",
"t  c #4A4B4C",
"y  c #524145",
"u  c #514B4C",
"i  c #4D4D50",
"p  c #594B50",
"a  c #535355",
"s  c #565559",
"d  c #5C5B5D",
"f  c #6B474A",
"g  c #6A4F51",
"h  c #6A5657",
"j  c #665758",
"k  c #695758",
"l  c #5D5E63",
"z  c #615D61",
"x  c #6C5F65",
"c  c #775F61",
"v  c #5F6065",
"b  c #646466",
"n  c #656669",
"m  c #6C666C",
"M  c #6A6A6B",
"N  c #756464",
"B  c #786364",
"V  c #776D6E",
"C  c #7E6D6D",
"Z  c #6C6C73",
"A  c #757475",
"S  c #74747A",
"D  c #797579",
"F  c #7C7C7C",
"G  c #8C1C25",
"H  c #931C25",
"J  c #9E1F29",
"K  c #84242A",
"L  c #8B252C",
"P  c #93262E",
"I  c #9B252E",
"U  c #992931",
"Y  c #A3222B",
"T  c #AA242E",
"R  c #A42933",
"E  c #AB2A34",
"W  c #B52B35",
"Q  c #C22E3A",
"!  c #C7313C",
"~  c #CB323D",
"^  c #D43541",
"/  c #DA3643",
"(  c #827B7C",
")  c #8B7D7E",
"_  c #848484",
"`  c #898585",
"'  c #86858B",
"]  c #88878F",
"[  c #8C8B8B",
"{  c #908A8A",
"}  c #8D8D94",
"|  c #8F8F98",
" . c #939393",
".. c #989696",
"X. c #92929A",
"o. c #9C9C9B",
"O. c #A59496",
"+. c #A19B9C",
"@. c #9FA09F",
"#. c #9A9BA4",
"$. c #A4A4A4",
"%. c #ABA5A5",
"&. c #A4A4AE",
"*. c #A7A8A8",
"=. c #ACACAC",
"-. c #B3ACAC",
";. c #AEB0AF",
":. c #A5A5B0",
">. c #ABACB5",
",. c #AEAEB9",
"<. c #AFB0B0",
"1. c #B4B4B5",
"2. c #B8B0B0",
"3. c #B8B8B7",
"4. c #B2B2BD",
"5. c #BBBBBB",
"6. c #D0B4B7",
"7. c #C0C0BF",
"8. c #B5B7C1",
"9. c #BBBCC4",
"0. c #C3C3C3",
"q. c #C4C4CB",
"w. c #C6C8C8",
"e. c #CCCCCC",
"r. c #D0D0CF",
"t. c #C4C5D1",
"y. c #CACAD4",
"u. c #CDCED9",
"i. c #D4D4D4",
"p. c #D1D2DD",
"a. c #DCDDDC",
"s. c #FEC5CC",
"d. c #FEC9CF",
"f. c #FECBD2",
"g. c #FED1D7",
"h. c #FED7DD",
"j. c #FED9DE",
"k. c #D4D5E2",
"l. c #DCDCE3",
"z. c #DCDCEA",
"x. c #E4E4E3",
"c. c #E3E4EF",
"v. c #ECECEC",
"b. c #FFE2E6",
"n. c #FDEBED",
"m. c #F0F0EF",
"M. c #E5E5F3",
"N. c #E8E7F7",
"B. c #EAEAF6",
"V. c #EBEBF9",
"C. c #FDEFF0",
"Z. c #EFF0F0",
"A. c #F3F3F3",
"S. c #FDF3F3",
"D. c #FCF8F7",
"F. c #F3F3FB",
"G. c #F7F8FD",
"H. c #FFFFFF",
/* pixels */
"H.H.H.H.H.H.H.H.H.H.H.H.H.H.H.H.H.H.H.H.H.H.H.H.H.H.H.H.H.H.H.H.H.H.H.H.H.H.H.H.H.H.H.H.H.H.H.H.H.H.H.H.H.H.H.H.H.H.H.H.H.H.H.H.",
"H.H.H.H.H.H.H.H.H.H.H.H.H.H.H.H.H.H.H.H.H.H.H.H.H.H.H.H.H.H.H.H.H.H.H.H.H.H.H.H.H.H.H.H.H.H.H.H.H.H.H.H.H.H.H.H.H.H.H.H.H.H.H.H.",
"H.H.H.H.H.H.H.H.H.H.H.H.H.H.H.H.H.H.H.H.H.H.H.H.H.H.H.H.H.H.H.H.H.H.H.H.H.H.H.H.H.H.H.H.H.H.H.H.H.H.H.H.H.H.H.H.H.H.H.H.H.H.H.H.",
"H.H.H.H.H.H.H.H.H.H.H.H.H.H.H.H.H.H.H.H.H.H.H.H.H.H.H.H.H.H.H.H.H.H.H.H.H.H.H.H.H.H.H.H.H.H.H.H.H.H.H.H.H.H.H.H.H.H.H.H.H.H.H.H.",
"H.H.H.H.H.H.H.H.H.H.H.H.H.H.H.H.H.H.H.H.H.H.H.H.H.H.H.H.H.H.H.H.H.H.H.H.H.H.H.H.H.H.H.H.H.H.H.H.H.H.H.H.H.H.H.H.H.H.H.H.H.H.H.H.",
"H.H.H.H.H.H.H.H.H.H.H.H.H.H.H.H.H.H.H.H.H.H.H.H.H.H.H.H.H.H.H.H.H.H.H.H.H.H.H.H.H.H.H.H.H.H.H.H.H.H.H.H.H.H.H.H.H.H.H.H.H.H.H.H.",
"H.H.H.H.H.H.H.H.H.H.H.H.H.H.H.H.H.H.H.H.H.H.H.H.H.H.H.H.H.H.H.H.H.H.H.H.H.H.H.H.H.H.H.H.H.H.H.H.H.H.H.H.H.H.H.H.H.H.H.H.H.H.H.H.",
"H.H.H.H.H.H.H.H.H.H.H.H.H.H.H.H.H.H.H.H.H.H.H.H.H.H.H.H.H.H.H.H.H.H.H.H.H.H.H.H.H.H.H.H.H.H.H.H.H.H.H.H.H.H.H.H.H.H.H.H.H.H.H.H.",
"H.H.H.H.H.H.H.H.H.H.H.H.H.H.H.H.H.H.H.H.H.H.H.H.H.H.H.H.H.H.H.H.H.H.H.H.H.H.H.H.H.H.H.H.H.H.H.H.H.H.H.H.H.H.H.H.H.H.H.H.H.H.H.H.",
"H.H.H.H.H.H.H.H.H.H.H.H.H.H.H.H.H.H.H.H.H.H.H.H.H.H.H.H.H.H.H.H.H.H.H.H.H.H.H.H.H.H.H.H.H.H.H.H.H.H.H.H.H.H.H.H.H.H.H.H.H.H.H.H.",
"H.H.H.H.H.H.H.H.H.H.H.H.H.H.H.H.H.H.H.H.H.H.H.H.H.H.H.H.H.H.H.H.H.H.H.H.H.H.H.H.H.H.H.H.H.H.H.H.H.H.H.H.H.H.H.H.H.H.H.H.H.H.H.H.",
"H.H.H.H.H.H.H.H.H.H.H.H.H.H.H.H.H.H.H.H.H.H.H.H.H.H.H.H.H.H.H.H.H.H.H.H.H.H.H.H.H.H.H.H.H.H.H.H.H.H.H.H.H.H.H.H.H.H.H.H.H.H.H.H.",
"H.H.H.H.H.H.H.H.H.H.H.H.H.H.H.H.H.H.H.H.H.H.H.H.H.H.H.v.a.a.A.H.H.H.H.H.H.H.H.H.H.H.H.H.H.H.H.H.H.H.H.H.H.H.H.H.H.H.H.H.H.H.H.H.",
"H.H.H.H.H.H.H.H.H.H.H.H.H.H.H.H.H.H.H.H.H.H.H.H.v.5._ A A A F 1.D.H.H.D.D.G.H.H.H.H.H.H.H.H.H.H.H.H.H.H.H.H.H.H.H.H.H.H.H.H.H.H.",
"H.H.H.H.H.H.H.H.H.H.H.H.H.H.H.H.H.H.H.H.H.H.v.=.A _ 1.a.v.A.i.S [ +.) C N C { 5.v.H.H.H.H.H.H.H.H.H.H.H.H.H.H.H.H.H.H.H.H.H.H.H.",
"H.H.H.H.H.H.H.H.H.H.H.H.H.H.H.H.H.H.H.H.H.5.A  .i.D.H.H.H.H.F.4.2 U R W W R P w g +.v.H.H.H.H.H.H.H.H.H.H.H.H.H.H.H.H.H.H.H.H.H.",
"H.H.H.H.H.H.H.H.H.H.H.H.H.H.H.H.H.H.H.x. .F e.D.H.H.H.H.D.F.M.S K / / / / / / ^ W q N i.H.H.H.H.H.H.H.H.H.H.H.H.H.H.H.H.H.H.H.H.",
"H.H.H.H.H.H.H.H.H.H.H.H.H.H.H.H.H.H.e.F $.Z.H.H.H.H.H.G.F.p.S $ T / / / / / / / / / U f 3.H.H.H.H.H.H.H.H.H.H.H.H.H.H.H.H.H.H.H.",
"H.H.H.H.H.H.H.H.H.H.H.H.H.H.H.H.H.0.D 0.H.H.H.H.H.H.G.V.4.i   # > P E E ^ / / Q W U L * o [ w.D.H.H.H.H.H.H.H.H.H.H.H.H.H.H.H.H.",
"H.H.H.H.H.H.H.H.H.H.H.H.H.H.H.H.0.F i.H.H.H.H.H.G.F.z.] d } o.*.@.V B h q K 8 6 k V )  ...[ m F a.H.H.H.H.H.H.H.H.H.H.H.H.H.H.H.",
"H.H.H.H.H.H.H.H.H.H.H.H.H.H.H.i.F i.H.H.H.H.H.F.N.8.n S y.G.H.H.H.x.;.M u _ 5.l.A.D.H.H.H.H.v. .M v.H.H.H.H.H.H.H.H.H.H.H.H.H.H.",
"H.H.H.H.H.H.H.H.H.H.H.H.H.H.v.F e.H.H.H.H.G.B.u.] b :.c.V.H.H.v.=.A F 3.v.H.H.H.H.H.H.H.H.H.H.M.Z =.5.7.D.H.H.H.H.H.H.H.H.H.H.H.",
"H.H.H.H.H.H.H.H.H.H.H.H.H.A.o.@.H.H.H.D.l.>.Z O X v S S _ o.=.F [ e.D.H.H.H.H.H.H.H.H.D.H.G.F.N.S r [ b _ x.H.H.H.H.H.H.H.H.H.H.",
"H.H.H.H.H.H.H.H.H.H.H.H.m._ a x.H.H.H.e.t @ d F o.$.$.$.o._ _ e.H.H.H.H.H.H.H.H.H.H.H.G.D.Z.N.k.e F F.p.M o.H.H.H.H.H.H.H.H.H.H.",
"H.H.H.H.H.H.H.H.H.H.H.H.7.t F D.H.H.H.v.0.a.D.H.H.H.H.H.H.H.D.H.H.H.H.H.H.G.F.F.V.F.V.V.V.M.k.D > c Z.H.,.M A.H.H.H.H.H.H.H.H.H.",
"H.H.H.H.H.H.H.H.H.H.H.H. .@ 5.H.H.H.H.H.H.H.H.H.H.H.H.H.H.H.H.H.H.D.l.9.>.4.q.p.k.k.u.u.9.} e 9 ! w >.G.9.M A.H.H.H.H.H.H.H.H.H.",
"H.H.H.H.H.H.H.H.H.H.H.v.n $.H.H.H.H.H.H.H.H.H.H.H.H.H.H.H.H.H.H.H.y.s t Z n l l v v l + < % G ^ / R x M.y.n v.H.H.H.H.H.H.H.H.H.",
"H.H.H.H.H.H.H.H.H.H.H...o.H.H.H.H.H.H.H.H.H.H.H.H.H.H.H.H.H.H.H.H.c.| | V.M.z.p.u.p.p.M & J T ~ / ~ 3 9.,.n A.H.H.H.H.H.H.H.H.H.",
"H.H.H.H.H.H.H.H.H.H.x.A x.H.H.H.H.H.H.H.H.H.H.H.H.H.H.H.H.H.H.H.H.H.q.n q.H.G.H.H.D.F.8.$ H J Q / / 9 t n *.H.H.H.H.H.H.H.H.H.H.",
"H.H.H.H.H.H.H.H.H.H.1.[ H.H.H.H.H.H.H.H.H.H.H.H.H.H.H.H.H.H.H.H.H.H.H.<.v i.H.H.H.H.F.z.z = J Q / / L A x.D.H.H.H.H.H.H.H.H.H.H.",
"H.H.H.H.H.H.H.H.H.H. .=.H.H.H.H.H.H.H.H.H.H.H.H.H.H.H.H.H.H.H.H.H.H.H.H.[ ..H.H.H.H.H.V.} % Y ! / / P ( H.H.H.H.H.H.H.H.H.H.H.H.",
"H.H.H.H.H.H.H.H.H.H._ 5.H.H.H.H.H.H.H.H.H.H.H.H.H.H.H.H.H.H.H.H.H.H.H.H.w.b x.H.H.H.G.V.] = Y Q / / P ( H.H.H.H.H.H.H.H.H.H.H.H.",
"H.H.H.H.H.H.H.H.H.H._ 5.H.H.H.H.H.H.H.H.H.H.H.H.H.H.H.H.H.H.H.H.H.H.H.H.D.A 3.H.H.H.G.F.#.> J Q / / K { H.H.H.H.H.H.H.H.H.H.H.H.",
"H.H.H.H.H.H.H.H.H.H.` >.H.H.H.H.H.H.H.H.H.H.H.H.H.H.H.H.H.H.H.H.H.H.H.H.H.....H.H.H.F.N.u.4 H Q / ^ 0 $.H.H.H.H.H.H.H.H.H.H.H.H.",
"H.H.H.H.H.H.H.H.H.H.o. .H.H.H.H.H.H.H.H.H.D.H.H.H.H.H.H.H.H.H.H.H.H.H.H.H.w.n v.H.G.N.N.z.p : W ^ ^ 7 5.H.H.H.H.H.H.H.H.H.H.H.H.",
"H.H.H.H.H.H.H.H.H.H.5.A D.H.H.H.D.H.D.D.S.S.S.S.0...[ *.D.H.H.H.H.H.H.H.H.m.n r.H.D.N.N.N.m - T ^ ~ 5 a.H.H.H.H.H.H.H.H.H.H.H.H.",
"H.H.H.H.H.H.H.H.H.H.a.b v.D.5...<.D.C.b.j.j.j.j.6.O.%.5.D.H.H.H.H.H.H.H.H.v.n e.H.V.N.N.N.' & T ^ E j A.H.H.H.H.H.H.H.H.H.H.H.H.",
"H.H.H.H.H.H.H.H.H.H.x.b x.D.w.0.x.C.j.f.s.s.s.s.f.h.S.H.H.H.H.H.H.H.H.H.H.H. . .H.V.N.N.V.>.$ T / K [ H.H.H.H.H.H.H.H.H.H.H.H.H.",
"H.H.H.H.H.H.H.H.H.H.i.b v.H.H.H.D.b.f.s.s.s.s.s.d.h.n.H.H.H.H.H.H.H.H.v.D.H.1.A V.V.N.N.N.t.1 Y ! 3 0.H.H.H.H.H.H.H.H.H.H.H.H.H.",
"H.H.H.H.H.H.H.H.H.H.$._ H.H.H.H.D.b.f.d.d.f.f.g.j.n.D.H.H.H.H.H.H.H.H...5.H.1.A M.N.N.N.V.k.y ; I j A.H.H.H.H.H.H.H.H.H.H.H.H.H.",
"H.H.H.H.H.H.H.H.H.H.[ $.H.H.H.H.D.n.b.b.b.b.b.n.n.x.A.H.H.H.H.H.H.H.D.A 1.H.i.d k.V.M.N.N.V.#.$ ,  .H.H.H.H.H.H.H.H.H.H.H.H.H.H.",
"H.H.H.H.H.H.H.H.H.H._ =.H.H.H.H.H.A.-.%.-.2.[ [ F M a.H.H.H.H.H.H.H.v.l u.H.i.n z.V.N.N.M.N.#.. 2 0.H.H.H.H.H.H.H.H.H.H.H.H.H.H.",
"H.H.H.H.H.H.H.H.H.H.F 1.H.H.H.H.H.A._  .[ _ *.-.7.e.D.H.H.H.H.H.H.H.0.b M.H.x.b u.N.N.N.N.M.l t $.D.H.H.H.H.H.H.H.H.H.H.H.H.H.H.",
"H.H.H.H.H.H.H.H.H.H._ $.H.H.H.H.H.H.D.H.H.H.H.H.H.H.H.H.H.H.H.H.H.G.F | F.H.v.M t.V.N.N.V.N.Z o.H.H.H.H.H.H.H.H.H.H.H.H.H.H.H.H.",
"H.H.H.H.H.H.H.H.H.H.1.M Z.H.H.H.H.H.H.H.H.H.H.H.H.H.H.H.H.H.H.H.H.3.d k.G.D.[ O X.z.V.V.M.,.s 3.H.H.H.H.H.H.H.H.H.H.H.H.H.H.H.H.",
"H.H.H.H.H.H.H.H.H.H.A.A A e.D.H.H.H.H.H.H.H.H.H.H.H.H.H.H.H.D.m.1.s >.F.D.[ M =.M l } &.S s =.D.H.H.H.H.H.H.H.H.H.H.H.H.H.H.H.H.",
"H.H.H.H.H.H.H.H.H.H.H.v.[ d n @.5.5.<.*... .[ _ [ o.o.o. ._ M d d >.F.x.F M l.H.A.7.' M ] a.H.H.H.H.H.H.H.H.H.H.H.H.H.H.H.H.H.H.",
"H.H.H.H.H.H.H.H.H.H.H.H.H.i.d A n i @ A '  ..... .` _ [ [ b a 7.v.B.<.d _ v.H.H.H.H.H.D.H.H.H.H.H.H.H.H.H.H.H.H.H.H.H.H.H.H.H.H.",
"H.H.H.H.H.H.H.H.H.H.H.H.H.e.n F Z a o.D.H.H.H.H.H.H.H.H.i.t $.H.r.M n 5.D.H.H.H.H.H.H.H.H.H.H.H.H.H.H.H.H.H.H.H.H.H.H.H.H.H.H.H.",
"H.H.H.H.H.H.H.H.H.H.H.H.H.A.<... .$.A.H.H.H.H.H.H.H.H.H.e.a e o.n [ v.H.H.H.H.H.H.H.H.H.H.H.H.H.H.H.H.H.H.H.H.H.H.H.H.H.H.H.H.H.",
"H.H.H.H.H.H.H.H.H.H.H.H.H.H.H.H.H.H.H.H.H.H.H.H.H.H.H.D.H.x._ t F m.H.H.H.H.H.H.H.H.H.H.H.H.H.H.H.H.H.H.H.H.H.H.H.H.H.H.H.H.H.H.",
"H.H.H.H.H.H.H.H.H.H.H.H.H.H.H.H.D.G.D.G.G.D.D.G.D.G.G.D.D.H.G.v.D.H.H.H.H.H.H.H.H.H.H.H.H.H.H.H.H.H.H.H.H.H.H.H.H.H.H.H.H.H.H.H.",
"H.H.H.H.H.H.H.H.H.H.H.H.H.H.H.H.H.G.D.D.H.D.H.D.D.H.H.H.H.H.H.H.H.H.H.H.H.H.H.H.H.H.H.H.H.H.H.H.H.H.H.H.H.H.H.H.H.H.H.H.H.H.H.H.",
"H.H.H.H.H.H.H.H.H.H.H.H.H.H.H.H.H.H.H.H.H.H.H.H.H.H.H.H.H.H.H.H.H.H.H.H.H.H.H.H.H.H.H.H.H.H.H.H.H.H.H.H.H.H.H.H.H.H.H.H.H.H.H.H.",
"H.H.H.H.H.H.H.H.H.H.H.H.H.H.H.H.H.H.H.H.H.H.H.H.H.H.H.H.H.H.H.H.H.H.H.H.H.H.H.H.H.H.H.H.H.H.H.H.H.H.H.H.H.H.H.H.H.H.H.H.H.H.H.H.",
"H.H.H.H.H.H.H.H.H.H.H.H.H.H.H.H.H.H.H.H.H.H.H.H.H.H.H.H.H.H.H.H.H.H.H.H.H.H.H.H.H.H.H.H.H.H.H.H.H.H.H.H.H.H.H.H.H.H.H.H.H.H.H.H.",
"H.H.H.H.H.H.H.H.H.H.H.H.H.H.H.H.H.H.H.H.H.H.H.H.H.H.H.H.H.H.H.H.H.H.H.H.H.H.H.H.H.H.H.H.H.H.H.H.H.H.H.H.H.H.H.H.H.H.H.H.H.H.H.H.",
"H.H.H.H.H.H.H.H.H.H.H.H.H.H.H.H.H.H.H.H.H.H.H.H.H.H.H.H.H.H.H.H.H.H.H.H.H.H.H.H.H.H.H.H.H.H.H.H.H.H.H.H.H.H.H.H.H.H.H.H.H.H.H.H.",
"H.H.H.H.H.H.H.H.H.H.H.H.H.H.H.H.H.H.H.H.H.H.H.H.H.H.H.H.H.H.H.H.H.H.H.H.H.H.H.H.H.H.H.H.H.H.H.H.H.H.H.H.H.H.H.H.H.H.H.H.H.H.H.H.",
"H.H.H.H.H.H.H.H.H.H.H.H.H.H.H.H.H.H.H.H.H.H.H.H.H.H.H.H.H.H.H.H.H.H.H.H.H.H.H.H.H.H.H.H.H.H.H.H.H.H.H.H.H.H.H.H.H.H.H.H.H.H.H.H.",
"H.H.H.H.H.H.H.H.H.H.H.H.H.H.H.H.H.H.H.H.H.H.H.H.H.H.H.H.H.H.H.H.H.H.H.H.H.H.H.H.H.H.H.H.H.H.H.H.H.H.H.H.H.H.H.H.H.H.H.H.H.H.H.H.",
"H.H.H.H.H.H.H.H.H.H.H.H.H.H.H.H.H.H.H.H.H.H.H.H.H.H.H.H.H.H.H.H.H.H.H.H.H.H.H.H.H.H.H.H.H.H.H.H.H.H.H.H.H.H.H.H.H.H.H.H.H.H.H.H.",
"H.H.H.H.H.H.H.H.H.H.H.H.H.H.H.H.H.H.H.H.H.H.H.H.H.H.H.H.H.H.H.H.H.H.H.H.H.H.H.H.H.H.H.H.H.H.H.H.H.H.H.H.H.H.H.H.H.H.H.H.H.H.H.H.",
"H.H.H.H.H.H.H.H.H.H.H.H.H.H.H.H.H.H.H.H.H.H.H.H.H.H.H.H.H.H.H.H.H.H.H.H.H.H.H.H.H.H.H.H.H.H.H.H.H.H.H.H.H.H.H.H.H.H.H.H.H.H.H.H."
};
